/* XPM */
static char *result[] = {
/* columns rows colors chars-per-pixel */
"16 16 187 2 ",
"   c #3F2D2A",
".  c #3F2D2B",
"X  c #222632",
"o  c #252630",
"O  c #2E2B31",
"+  c #2F2D36",
"@  c #3A2F33",
"#  c #3C2E31",
"$  c #3F2F31",
"%  c #393134",
"&  c #34333C",
"*  c #3A3138",
"=  c #38323C",
"-  c #463631",
";  c #413236",
":  c #47373B",
">  c #473839",
",  c #493939",
"<  c #4B393A",
"1  c #4E3A3C",
"2  c #523A35",
"3  c #523C37",
"4  c #50393A",
"5  c #503B3A",
"6  c #503A3B",
"7  c #513D3B",
"8  c #523C3D",
"9  c #523C3E",
"0  c #5A413C",
"q  c #1A2F49",
"w  c #1F3144",
"e  c #19314E",
"r  c #163456",
"t  c #1F3752",
"y  c #16375E",
"u  c #1B3859",
"i  c #1A385A",
"p  c #1B385A",
"a  c #1D3A5C",
"s  c #1C3B5E",
"d  c #233347",
"f  c #2B3541",
"g  c #2C3440",
"h  c #293746",
"j  c #2E3544",
"k  c #2D3746",
"l  c #2D3947",
"z  c #25344A",
"x  c #22344C",
"c  c #2F374A",
"v  c #293A4C",
"b  c #29394F",
"n  c #313545",
"m  c #313845",
"M  c #393941",
"N  c #3F3A41",
"B  c #3C3C45",
"V  c #3F3D46",
"C  c #373C4C",
"Z  c #233750",
"A  c #253850",
"S  c #273A54",
"D  c #2B3950",
"F  c #2D3A51",
"G  c #213B59",
"H  c #223F5F",
"J  c #313D53",
"K  c #3D3F50",
"L  c #183960",
"P  c #193B61",
"I  c #1E3F63",
"U  c #1C3E64",
"Y  c #473C42",
"T  c #413C46",
"R  c #433D46",
"E  c #4E3E45",
"W  c #433D48",
"Q  c #4A3F4B",
"!  c #513B40",
"~  c #503B41",
"^  c #503D40",
"/  c #533D41",
"(  c #523E40",
")  c #523F45",
"_  c #3A465D",
"`  c #204167",
"'  c #254466",
"]  c #26486D",
"[  c #25496F",
"{  c #2B4C6F",
"}  c #374F6C",
"|  c #32506E",
" . c #3F5068",
".. c #305173",
"X. c #33557B",
"o. c #404048",
"O. c #42414C",
"+. c #4E4148",
"@. c #4D434C",
"#. c #4E424D",
"$. c #48444F",
"%. c #4B474F",
"&. c #4C494F",
"*. c #5D4241",
"=. c #5C4042",
"-. c #5C4245",
";. c #554149",
":. c #54434B",
">. c #514449",
",. c #5B4448",
"<. c #5B454F",
"1. c #4F4651",
"2. c #4F4751",
"3. c #4E4552",
"4. c #4B4956",
"5. c #4D4A57",
"6. c #4F4C56",
"7. c #45495A",
"8. c #564955",
"9. c #544A54",
"0. c #574A55",
"q. c #5B4952",
"w. c #5E4E52",
"e. c #5C4B55",
"r. c #584C55",
"t. c #5A4C55",
"y. c #564F5B",
"u. c #594E5A",
"i. c #52515C",
"p. c #52515D",
"a. c #54525C",
"s. c #57515F",
"d. c #5C525B",
"f. c #5A525C",
"g. c #5F525E",
"h. c #5E525F",
"j. c #604341",
"k. c #63474A",
"l. c #62474C",
"z. c #63484D",
"x. c #624E55",
"c. c #684D50",
"v. c #6C5457",
"b. c #63545B",
"n. c #63535D",
"m. c #65555F",
"M. c #66545F",
"N. c #685159",
"B. c #69515B",
"V. c #6E5358",
"C. c #68555C",
"Z. c #69555E",
"A. c #6C575E",
"S. c #6C585C",
"D. c #6C595F",
"F. c #555765",
"G. c #5F5662",
"H. c #5A5866",
"J. c #5D5F65",
"K. c #5E5A68",
"L. c #5F5C6A",
"P. c #405A74",
"I. c #415B74",
"U. c #515F70",
"Y. c #625662",
"T. c #655664",
"R. c #675864",
"E. c #645967",
"W. c #685A63",
"Q. c #6D5961",
"!. c #665F6E",
"~. c #4E667D",
"^. c #5F6173",
"/. c #606474",
"(. c #67727C",
"). c #6C747B",
"_. c #43678B",
"`. c #4B6F91",
"'. c #4F7294",
"]. c #557799",
"[. c #606C80",
"{. c #606F80",
"}. c #747480",
"|. c #738390",
" X c #768B9B",
".X c #5F84A3",
"XX c None",
/* pixels */
"XXXXXXXXXXXXXX.X`.].XXXXXXXXXXXX",
"XXXXXXXX'.] L y P U [ _.XXXXXXXX",
"XXXXXX| r u a p i s I ` X.XXXXXX",
"XXXXP.e t Z b F J S G H ' { XXXX",
"XX~.q A z C f.W.R.y.7._  .} ..XX",
"XXD x d j 9.Z.D.Q.m.Y.K.^.[.I.XX",
"!.c w n 3.M.A.S.C.n.g.G.L./.{. X",
"T.K k d.r.W V T R #.8.u.s.F.U.|.",
"E.Q O.b.w.Y + X o * +.$.m h v (.",
"XXq.0.x.v.V.<.E ^ -.N.5.g f l ).",
"XXt.:.,.l.z.;.! k.c.B.H.4.2.p.XX",
"XXa.) ( 1 ; @ 6 9 / e.i.1.h.}.XX",
"XXXX>.8 7 > $ 5 , % o.M = 6.XXXX",
"XXXXXX< 3 0 *.4 : N B O & XXXXXX",
"XXXXXXXX- 2 j.=.~ @.%.J.XXXXXXXX",
"XXXXXXXXXXXX  . # &.XXXXXXXXXXXX"
};
