/* XPM */
static char *result[] = {
/* columns rows colors chars-per-pixel */
"32 32 181 2 ",
"   c #1F2F3F",
".  c #2F2526",
"X  c #2D292A",
"o  c #312523",
"O  c #30262A",
"+  c #352B2F",
"@  c #3B2C2E",
"#  c #232632",
"$  c #262833",
"%  c #2C2C33",
"&  c #2B2E3A",
"*  c #332E34",
"=  c #3B2E32",
"-  c #27323F",
";  c #28303C",
":  c #35333B",
">  c #3B333A",
",  c #3D393D",
"<  c #44312D",
"1  c #433333",
"2  c #4A3535",
"3  c #4D3935",
"4  c #44363A",
"5  c #493639",
"6  c #46393B",
"7  c #4D3A3B",
"8  c #513A35",
"9  c #533D3C",
"0  c #5C3F3C",
"q  c #55423E",
"w  c #59413E",
"e  c #1D3653",
"r  c #1D3956",
"t  c #1D3B5C",
"y  c #212E40",
"u  c #243244",
"i  c #2B3443",
"p  c #2D3847",
"a  c #25364C",
"s  c #2C3649",
"d  c #27384E",
"f  c #2B394B",
"g  c #333644",
"h  c #3A3742",
"j  c #343A45",
"k  c #3B3B43",
"l  c #343B4C",
"z  c #3C3D4A",
"x  c #223751",
"c  c #233953",
"v  c #213C5A",
"b  c #2A3B54",
"n  c #3A3F52",
"m  c #313C52",
"M  c #1D3D63",
"N  c #203F62",
"B  c #443A41",
"V  c #4A3D44",
"C  c #4B3D4B",
"Z  c #453E49",
"A  c #543F41",
"S  c #39414D",
"D  c #2D4053",
"F  c #23405E",
"G  c #2F4059",
"H  c #324051",
"J  c #3A4355",
"K  c #34425B",
"L  c #38475E",
"P  c #3C4B5B",
"I  c #1E4166",
"U  c #1F4268",
"Y  c #224265",
"T  c #2A4563",
"R  c #2B4866",
"E  c #23456B",
"W  c #26486E",
"Q  c #2C4A6B",
"!  c #334761",
"~  c #304D6F",
"^  c #334A64",
"/  c #39526E",
"(  c #264A71",
")  c #2B4D72",
"_  c #2D5176",
"`  c #2D5178",
"'  c #33567B",
"]  c #365779",
"[  c #494045",
"{  c #43424C",
"}  c #4B434C",
"|  c #524044",
" . c #5C4244",
".. c #54434B",
"X. c #5B454B",
"o. c #55484E",
"O. c #594A4E",
"+. c #424552",
"@. c #4C4551",
"#. c #414B57",
"$. c #4C4A53",
"%. c #444B5D",
"&. c #4D4C5A",
"*. c #564651",
"=. c #5A4754",
"-. c #544A54",
";. c #5B4C55",
":. c #534D5A",
">. c #5C4E5A",
",. c #5F5157",
"<. c #54535D",
"1. c #5D525D",
"2. c #614444",
"3. c #61464A",
"4. c #644A4E",
"5. c #634C52",
"6. c #694D54",
"7. c #634F5C",
"8. c #655055",
"9. c #6B5156",
"0. c #63535D",
"q. c #69555C",
"w. c #6B585D",
"e. c #70555A",
"r. c #4F5664",
"t. c #495468",
"y. c #4B5B6C",
"u. c #525361",
"i. c #5D5562",
"p. c #515D67",
"a. c #5D5A66",
"s. c #5D5C6B",
"d. c #425A73",
"f. c #4E5C73",
"g. c #5A5D70",
"h. c #635662",
"j. c #685760",
"k. c #625965",
"l. c #6B5A64",
"z. c #635D6B",
"x. c #6A5F6D",
"c. c #715E67",
"v. c #5F606F",
"b. c #4C647A",
"n. c #5E6374",
"m. c #5F6877",
"M. c #52687F",
"N. c #5C6D7F",
"B. c #70606A",
"V. c #616273",
"C. c #676874",
"Z. c #616B7D",
"A. c #6D6777",
"S. c #66707A",
"D. c #687078",
"F. c #3B5E81",
"G. c #3C6284",
"H. c #426485",
"J. c #456A8C",
"K. c #5E6E85",
"L. c #577388",
"P. c #4B6F91",
"I. c #597D9E",
"U. c #647485",
"Y. c #6F7480",
"T. c #66798E",
"R. c #697B8D",
"E. c #807B88",
"W. c #6F8594",
"Q. c #6389A6",
"!. c #688CAC",
"~. c #6C90AE",
"^. c #7D9BAF",
"/. c #7490A4",
"(. c #7194B1",
"). c #8F9497",
"_. c #85949F",
"`. c #93999E",
"'. c #90949C",
"]. c #86A4B8",
"[. c None",
/* pixels */
"[.[.[.[.[.[.[.[.[.[.[.[.[.[.[.[.[.!.(.[.[.[.[.[.[.[.[.[.[.[.[.[.",
"[.[.[.[.[.[.[.[.[.[.[.[.Q.G.` E E ( E F.P.[.[.[.[.[.[.[.[.[.[.[.",
"[.[.[.[.[.[.[.[.[.[.F.M M M M M U U U E W ` J.~.[.[.[.[.[.[.[.[.",
"[.[.[.[.[.[.[.[.H.M t M M M M M M M M E E ( ) ) I.[.[.[.[.[.[.[.",
"[.[.[.[.[.[.[.T t M t M t t t t M M M M Y E W ) ) J.[.[.[.[.[.[.",
"[.[.[.[.[.^.t r r r r r t v v r r r r M M M Y E ) ) F.[.[.[.[.[.",
"[.[.[.[.].v r r r e x c c c x e x b x r v v Y Y W ) ) ' Q.[.[.[.",
"[.[.[.[.v r c c x x d d d l l J J n m b c v v T T T ~ ] ] [.[.[.",
"[.[.[.T x c x x x a s l $.1.i.k.h.i.:.&.J K K K ! ^ ~ Q ) H.[.[.",
"[.[.M.d c d b d s s l @.k.l.l.B.c.k.0.1.<.:.%.! t.f.f./ T ) [.[.",
"[.[.L d x x d d u i Z :.0.w.w.c.c.l.h.h.k.k.a.s.g.m.K.K.d.R /.[.",
"[.A.n a d d u u i z -.0.0.0.q.q.q.j.7.0.h.k.k.z.v.V.V.U.T.d.L.[.",
"[.C l a a y y & h @.>.q.q.0.q.w.q.0.0.0.>.1.i.a.s.s.v.m.U.R.b.[.",
"[.i.n s u y g +.:.>.0.j.l.w.w.w.q.7.0.7.i.h.0.i.a.s.v.n.m.U.U.W.",
"A.l.:.s u l :.h.7.>.-.-.;.-.;.;.;.*.;.5.>.>.1.1.i.i.s.v.m.K.U._.",
"z.j.:.s u Z h.1.>.} h & & & % & & : k C } =.:.:.:.u.u.u.y.y.N.[.",
"k.C C z i } 1.8.O.V B & # # # # # % * > B C @.{ z l p p f D P [.",
"[.;.=.>.g -.0.0.q.q.6.A B : : $ # % > 4 | *.$.z g - u f H J P `.",
"[.x.X.;.$.;.0.5.6.9.e.6.X.V B 4 4 5 9 A 5.w.i.z ; i u     - J ).",
"[.E.5.;.;.;.5.4.9.9.e.6.5.=...X.X.3.3.3.6.0.i.+.g j j k S P v.[.",
"[.[.5.-.=...O.O.5.6.9.6.5.;.X. .3.4.6.4.6.q.z.u.+.{ { { $.<.D.[.",
"[.[.;.*...A X. . . . . .| B 1 5 A 3.3.4.6.7.s.a.<.:.;.1.<.v.`.[.",
"[.[.[.-...| A A 7 9 7 4 = + 1 5 2.4.3.6.6.h.s.&.$.>.h.k.V.D.[.[.",
"[.[.[.-...| A 7 7 5 4 * + 7  . .2 = 1 5 A >.s.Z h -.1.z.z.`.[.[.",
"[.[.[.[...| 9 A 7 8 7 * X @ 9  .q 6 + + : k { : : C -.<.C.[.[.[.",
"[.[.[.[.$.| 9 9 q 8 q q 5 @ < 5 7 6 6 6 { $.S % : B { <.[.[.[.[.",
"[.[.[.[.[.} 7 7 0 q w w w w 8 7 7 6 , : : +.S X % : &.[.[.[.[.[.",
"[.[.[.[.[.[.[.5 8 8 8 w 2.2.w 9 6 6 6 [ S : * * * { [.[.[.[.[.[.",
"[.[.[.[.[.[.[.[.3 8 8 0 2.2.A 9 5 4 B @.$.[ q B <.[.[.[.[.[.[.[.",
"[.[.[.[.[.[.[.[.[.[.2 3 0 2.2.2. .....-.$.$.S.[.[.[.[.[.[.[.[.[.",
"[.[.[.[.[.[.[.[.[.[.[.< < < 2 2 5 V V $.[.[.[.[.[.[.[.[.[.[.[.[.",
"[.[.[.[.[.[.[.[.[.[.[.[.[.[.o o . X [.[.[.[.[.[.[.[.[.[.[.[.[.[."
};
