/* XPM */
static char *result[] = {
/* columns rows colors chars-per-pixel */
"64 64 223 2 ",
"   c #20181B",
".  c #1A1E2A",
"X  c #2B1F22",
"o  c #1D212D",
"O  c #1D2D3C",
"+  c #2C262C",
"@  c #272329",
"#  c #322523",
"$  c #34292C",
"%  c #3C2C2C",
"&  c #382927",
"*  c #232632",
"=  c #252934",
"-  c #2C2C34",
";  c #232E3D",
":  c #2A2D3A",
">  c #282630",
",  c #322D34",
"<  c #3B2E32",
"1  c #332F39",
"2  c #26313E",
"3  c #2B323E",
"4  c #2F3036",
"5  c #3C3236",
"6  c #34323B",
"7  c #3B343B",
"8  c #3D393E",
"9  c #343237",
"0  c #3F302B",
"q  c #412E2D",
"w  c #45332E",
"e  c #422E30",
"r  c #433334",
"t  c #4B3534",
"y  c #4D3935",
"u  c #44363B",
"i  c #4B363A",
"p  c #45393D",
"a  c #4C3A3B",
"s  c #473834",
"d  c #523A36",
"f  c #523C3C",
"g  c #593E3B",
"h  c #503637",
"j  c #55413D",
"k  c #5C403E",
"l  c #60413F",
"z  c #1F2F42",
"x  c #1D3654",
"c  c #1D3956",
"v  c #1D3B5B",
"b  c #1E3144",
"n  c #242E42",
"m  c #243344",
"M  c #2B3443",
"N  c #25364D",
"B  c #2A364A",
"V  c #27384D",
"C  c #2C3A4C",
"Z  c #2E3A45",
"A  c #323543",
"S  c #3B3542",
"D  c #343945",
"F  c #3B3B44",
"G  c #343A4A",
"H  c #3C3D4A",
"J  c #303749",
"K  c #223751",
"L  c #233954",
"P  c #2A3C53",
"I  c #223C5A",
"U  c #2A3F5A",
"Y  c #343E53",
"T  c #3A3E51",
"R  c #1D3D62",
"E  c #213D61",
"W  c #423643",
"Q  c #433C44",
"!  c #4C3D43",
"~  c #443E4A",
"^  c #4B3D4A",
"/  c #533E42",
"(  c #5A3E42",
")  c #503F49",
"_  c #3D414C",
"`  c #35404D",
"'  c #25405F",
"]  c #2D435D",
"[  c #334254",
"{  c #3C4453",
"}  c #39465B",
"|  c #1F4066",
" . c #1F4168",
".. c #224265",
"X. c #2B4562",
"o. c #2D4967",
"O. c #22446A",
"+. c #26486E",
"@. c #2B4A6B",
"#. c #284768",
"$. c #3A4C63",
"%. c #324C6A",
"&. c #3C556C",
"*. c #3A5169",
"=. c #264970",
"-. c #2A4C72",
";. c #314F70",
":. c #2D5175",
">. c #2F5579",
",. c #325373",
"<. c #33557A",
"1. c #36597D",
"2. c #3B5876",
"3. c #444146",
"4. c #4B4146",
"5. c #44434C",
"6. c #4C434C",
"7. c #49484F",
"8. c #544143",
"9. c #5C4244",
"0. c #54434C",
"q. c #5C454B",
"w. c #5E494D",
"e. c #5B4947",
"r. c #444452",
"t. c #4B4652",
"y. c #4C4A55",
"u. c #434B5B",
"i. c #4C4C5A",
"p. c #454958",
"a. c #534652",
"s. c #5B4652",
"d. c #534A55",
"f. c #5B4C55",
"g. c #544D5A",
"h. c #5B4E59",
"j. c #524758",
"k. c #4B525C",
"l. c #54525D",
"z. c #5D525C",
"x. c #54545B",
"c. c #614443",
"v. c #61464B",
"b. c #634A4D",
"n. c #644846",
"m. c #644C53",
"M. c #694E54",
"N. c #624E5A",
"B. c #684C58",
"V. c #635155",
"C. c #6B5256",
"Z. c #64535C",
"A. c #6A555B",
"S. c #6B585C",
"D. c #67585F",
"F. c #71565B",
"G. c #444E62",
"H. c #485466",
"J. c #555562",
"K. c #5C5562",
"L. c #565A64",
"P. c #5C5A66",
"I. c #545B6A",
"U. c #5D5D6B",
"Y. c #575669",
"T. c #455C74",
"R. c #565E74",
"E. c #635562",
"W. c #685661",
"Q. c #635A65",
"!. c #6B5A63",
"~. c #625D6B",
"^. c #6E5D69",
"/. c #715E66",
"(. c #5E626F",
"). c #56616A",
"_. c #4F6073",
"`. c #5D6373",
"'. c #5D6A7B",
"]. c #576578",
"[. c #62626D",
"{. c #726068",
"}. c #626473",
"|. c #626C7E",
" X c #676B78",
".X c #6A747D",
"XX c #70767D",
"oX c #3B5E82",
"OX c #375A81",
"+X c #3D6184",
"@X c #42668A",
"#X c #466989",
"$X c #5D7489",
"%X c #4B6F92",
"&X c #4B7192",
"*X c #5A7E9B",
"=X c #5B7A94",
"-X c #5A6B83",
";X c #626E83",
":X c #637384",
">X c #657A8C",
",X c #687789",
"<X c #747881",
"1X c #6A7C91",
"2X c #59829F",
"3X c #79858B",
"4X c #6B8193",
"5X c #738493",
"6X c #5D81A1",
"7X c #6287A6",
"8X c #7895A7",
"9X c #7699B4",
"0X c #6D94B0",
"qX c #7FA4C2",
"wX c #838A91",
"eX c #8C9397",
"rX c #8699A7",
"tX c #9DA3A0",
"yX c #B0B4B4",
"uX c #8BB3CD",
"iX c #8FB4D0",
"pX c #A6CDE6",
"aX c None",
/* pixels */
"aXaXaXaXaXaXaXaXaXaXaXaXaXaXaXaXaXaXaXaXaXaXaXaXaXaXaXaXaXaXaXaXaXaXaXaX9XaXaXaXaXaXaXaXaXaXaXaXaXaXaXaXaXaXaXaXaXaXaXaXaXaXaXaX",
"aXaXaXaXaXaXaXaXaXaXaXaXaXaXaXaXaXaXaXaXaXaXaXaXaXaXpXuXuX6X7X&X&X&X&X+XOX7X6X9XaXaXaXaXaXaXaXaXaXaXaXaXaXaXaXaXaXaXaXaXaXaXaXaX",
"aXaXaXaXaXaXaXaXaXaXaXaXaXaXaXaXaXaXaXaXaXaXaXaXiX7X&X:.:. .+. . .O.=.-.=.-.>.@X&X6XaXaXaXaXaXaXaXaXaXaXaXaXaXaXaXaXaXaXaXaXaXaX",
"aXaXaXaXaXaXaXaXaXaXaXaXaXaXaXaXaXaXaXaXaX0X%X>.>.O.|  . . . . .O.O. .O.O.+.=.=.-.>.+X&XaXaXaXaXaXaXaXaXaXaXaXaXaXaXaXaXaXaXaXaX",
"aXaXaXaXaXaXaXaXaXaXaXaXaXaXaXaXaXaXaXuX+X=. .R  . . . .R  . . .O. .O. .O.O.=.=.-.>.:.<.+X2XaXaXaXaXaXaXaXaXaXaXaXaXaXaXaXaXaXaX",
"aXaXaXaXaXaXaXaXaXaXaXaXaXaXaXaXaXaX@X+. . .R O. ...R  .R R R R R O. .R R O.O.O.O.:.-.-.>.<.+X6XaXaXaXaXaXaXaXaXaXaXaXaXaXaXaXaX",
"aXaXaXaXaXaXaXaXaXaXaXaXaXaXaXaX*X+XR R R | R R | | R R R R R R R R  . .R O.O.O. .O.=.=.-.:.<.OX%XuXaXaXaXaXaXaXaXaXaXaXaXaXaXaX",
"aXaXaXaXaXaXaXaXaXaXaXaXaXaXaX#X+.R R R R R E E | v R R R R R R R R  .R R  .E E  . .=.=.=.=.:.<.OX@X0XaXaXaXaXaXaXaXaXaXaXaXaXaX",
"aXaXaXaXaXaXaXaXaXaXaXaXaX*Xo.E R v R R R v v R R R R R R R v R R R R R R R R R ..O.O.O.+.+.:.:.OXOXoX*XaXaXaXaXaXaXaXaXaXaXaXaX",
"aXaXaXaXaXaXaXaXaXaXaXaX#X' I v R v v v v v c v v v v v v x v R R x v v v R R R R E ....O.+.+.+.=.:.OXoX*XaXaXaXaXaXaXaXaXaXaXaX",
"aXaXaXaXaXaXaXaXaXaXaX=X' v v c x x v v x v x c x v I v v v x x x x x v v v v R R R R R ....O.+.=.-.:.<.1.%XaXaXaXaXaXaXaXaXaXaX",
"aXaXaXaXaXaXaXaXaXaX8XE I v v c x v x x v x v v I I c K c c x x x v x x x v x R v E I | ....#.O.+.-.-.;.:.<.#XaXaXaXaXaXaXaXaXaX",
"aXaXaXaXaXaXaXaXaX8XI I I I c c x K x x c c K I x L L L c x x x x I L L K K x R I v I I | | | ..+.@.-.-.-.<.<.oX2XaXaXaXaXaXaXaX",
"aXaXaXaXaXaXaXaX9X' I I L I c c x c c K K K K K K K N K K K N N N V P N K K x K I I I I v ' X...E +.@.;.;.<.>.<.oX9XaXaXaXaXaXaX",
"aXaXaXaXaXaXaXrX] c L I L x x x c K K K N K P K N N B N B B V G Y Y Y Y U U L L L I I I ' ' ' ' E #.o.@.;.;.,.<.oX@XaXaXaXaXaXaX",
"aXaXaXaXaXaXaXI I L L L L N L L K K N B V V B B J G Y ~ { r.r.y.j.i.p.p.Y T Y P P I U P ' ' ' ] ..X.X.o.o.%.,.,.2.1.#XaXaXaXaXaX",
"aXaXaXaXaXaX2.v I L L L V N N N N K N B m B B Y r.7.y.x.z.K.K.K.E.K.z.g.t.i.p.{ Y Y U Y U U U X.] ] X.X.U ;.-.;.;.<.2.*XaXaXaXaX",
"aXaXaXaXaX4XL U L L V L N L L L K N B V J J Y ~ i.z.Q.W.[.Q.!.!.Q.Q.E.z.g.g.g.i.p.G.p.} { U } } $.$.$.$.%.o.o.o.+.-.<.+XaXaXaXaX",
"aXaXaXaX>X] ] L P L V K L N L V N N N M J G ~ i.K.Q.!.Q.!.^.{.!.^.^.!.E.E.z.z.z.i.i.i.p.p.} } $.H.H.T.T.T.&.;.E o.+.:.1.=XaXaXaX",
"aXaXaXaX$XL [ L L L L K N L N V N M n B J T t.h.z.W.Q.W.!.!.{.!.^.{.^.!.E.E.z.z.K.J.J.g.g.G.G.G.H.Y.R.R.R.-XR.;.o.o.@.<.>XaXaXaX",
"aXaXaXaXH.L P L K N K K V V V V m M M J H r.j.h.Z.E.W.A.D.D.{.{.{././.!.E.E.D.E.E.E.K.Y.Y.J.Y.Y.Y.R.R.-X-X;X;X-X&.o.o.,.#XaXaXaX",
"aXaXaXaXG.U V N N N V B V V m m M M M D ~ j.f.Z.N.A.D.W.D.S.A.S.!.!.!.W.E.E.Z.E.E.E.Q.Q.Q.~.(.U.(.}.`.`.}.;X;X$X-X&.%.,.T.aXaXaX",
"aXaX,XE.i.P P N N N N N N N N M M M A H t.f.z.Z.N.Z.Z.D.D.A.S.S.Z.A.A.W.Z.Z.Z.E.E.E.E.Q.Q.~.~.~.(.(.}.}.}.;X;X$X>X$X2.*._.8XaXaX",
"aXrXS j.{ C N N N N m N n n n n M J H 6.d.f.Z.Z.Z.Z.V.V.S.S.A.A.A.S.N.N.N.h.Z.N.K.h.K.K.K.Q.U.~.~.U.`.}.}.`.;X;X1X4X>X&.,.4XaXaX",
"aX~.^ j.T B K N N N b b n n ; : A G ^ j.s.h.Z.D.Z.N.C.A.A.S.A.S.A.N.A.Z.Z.E.z.z.Z.K.h.h.K.K.P.~.~.~.(.(.U.`.`.'.:X,X5X>X&.&.aXaX",
"aXj.j.j.T P B N m n b z n ; : A S ^ a.j.N.E.Z.W.!.C.Z.A.A.Z.S.S.A.A.Z.Z.Z.Z.Z.z.N.N.K.h.Z.K.P.K.K.Y.U.U.U.(.(.].'.|.:X5X4X&.4XaX",
"aXj.h.K.~ Y B n b m z ; n A H 6.j.j.h.h.Z.E.D.!.!.A.A.A.A.A.V.A.A.Z.Z.Z.Z.Z.N.z.K.K.K.h.z.z.K.K.Y.P.P.U.`.(.U.`.].'.'.$X4X=X&.aX",
"aXs.W.E.^ T B n m z n M F t.d.x.h.h.z.h.h.z.Z.D.D.!.A.D.Z.A.A.A.Z.N.m.Z.m.V.N.z.N.K.h.h.h.K.z.K.K.U.P.U.U.(.}.`.].'.|..X,X4X_.eX",
"aXh.^.^.j.~ J B m m M G g.z.z.z.f.h.f.d.f.f.f.z.Z.z.Z.z.V.Z.Z.f.V.z.f.s.f.f.h.N.h.h.K.K.h.K.K.E.K.K.K.P.U.`.U.`.].'.'..X,X5X_.aX",
"<XN.^.W.Y.G.J B m m Z 5.K.Q.z.z.z.z.z.f.a.5.^ 5.3.3.~ ~ 5.6.d.t.6.t.0.6.a.d.f.f.f.j.h.h.h.h.h.h.h.K.K.K.P.U.U.(.`.].'.'.,X4X'.aX",
"E.W.W.^.^.p.J B m M G j.z.Z.z.z.D.z.f.d.Q 6 6 A 6 6 : = * * : : : 6 6 6 ~ ^ 0.a.a.^ d.d.g.h.h.g.h.g.J.J.x.L.I.).).].].].:X,X3XaX",
"E.W.N.K.j.~ Y B M M H d.z.z.z.z.d.4.Q 8 6 : = = ; = : : : = = * * * > = 1 7 S W ^ a.a.d.d.j.g.j.j.p.j.p.p.u.u.k.u.*.$.*._.$X3XaX",
"E.N.^ W 7 F G M M 3 4.x.z.x.f.e.7.j p 5 6 1 - > = = = : : : : : ; : - : 1 1 1 7 8 Q ^ 6.a.t.t.5.5.H H H ` Z Z C V V V [ [ H.3XaX",
"aXE.W ^ f.f.t.D 2 F 7.f.f.f.D.z.V.z.f.0.! u 7 1 + * o . o o o . o * - : 1 9 7 5 8 p Q ^ 6.6.~ H H M M m 2 2 2 m V Z [ [ [ [ <XaX",
"aX}.s.^ B.M.W.g.3 D a.f.z.V.Z.S.S.S.A.C.m.w.0.) ~ u 7 6 - * * o @ @ > + < 7 u u ! 4.8.^ 6.5.H H D A M M Z V C [ [ } $.$.$.k..XaX",
"aXaXN.) ) w.C.l.6 F a.z.Z.Z.Z.A.A.A.A.S.C.V.b./ ! Q W Q 7 8 6 : = - , 1 7 u i i 0.m.m.f.g.i.5.D M 2 2 2 2 m m Z ` ` ` ` $.k. XaX",
"aXaX~.s.0.m.m.h.t.t.z.V.Z.Z.V.V.V.V.C.C.C.C.M.v.q.) i W u 1 < 6 1 7 u i a f / / v.C.A.K.z.i._ 6 3 2 2 3 M O O 2 2 m 2 ` ` u. XaX",
"aXaX Xf.D.s.0.g.d.d.f.f.V.z.f.b.V.V.b.M.C.F.B.M.s.s.0.^ ^ ! ! i i a a f ( ( ( ( v.B.A.Z.K.l._ M 3 ; 3 D Z O O O 2 O 2 Z ` k.<XaX",
"aXaXaXN.Z.m.w.h.j.f.f.f.m.m.w.m.C.V.C.C.C.C.B.b.B.s.s.q.) q.9.) 9.9.9.9.v.( v.v.m.M.Z.N.E.J.r.G A 6 Z D D G G ` ` ` { $.k.).3XaX",
"aXaXaXW.m.f.Z.d.d.j.f.m.s.w.w.b.M.C.C.F.F.F.B.m.m.N.s.q.q.) q.q.q.v.v.v.v.v.m.m.B.A.A.Z.Z.U.i.H D D D D F F _ _ { { k.H.)..XeXaX",
"aXaXaX!.V.f.f.d.d.0.q.q.q.q.w.b.b.C.C.F.F.F.M.M.m.m.m.s.s.q.s.v.q.n.m.b.b.M.M.b.M.C.A.Z.K.~.J.r.r._ H ~ F ~ _ 3.7.7.k.k.)..XtXaX",
"aXaXaXD.S.Z.d.0.s.0.0.0.q.q.9.v.b.n.v.M.M.M.b.b.s.q.q.s.q.9.9.( 9.n.b.b.b.m.b.M.C.M.B.Z.~.[.J.l.i.y.r.5.6.7.t.j.y.k.x.x.(.3XaXaX",
"aXaXaXZ.A.f.7.0.0.0.) 0.0.9.q.v.n.9.9.9.v.( c.9.9.0.) / u r i y g 9.9.v.v.v.b.m.B.B.B.E.P.U.L.J.i.i.y.j.d.d.d.h.x.x.Q.(..XyXaXaX",
"aXaXaXaX0.d.a.0.0.8.! 8.8.8.8.8.8.( ( / ( f / ! a u 5 1 < < e t 9.v.v.v.9.v.b.b.B.B.N.z.P.U.P.J.J.g.g.h.h.z.h.K.Q.[.[..XwXaXaXaX",
"aXaXaXaXaX5.d.0.0.8.8.8./ 8.8./ / / i f i i W i u 1 $ $ < u t t 9.b.M.v.v.b.M.M.b.B.N.K.U.Y.l.i.i.j.g.h.z.E.E.~.~.[. X<XyXaXaXaX",
"aXaXaXaXaXaXx.0.0.0.0.a f / f a a i i a y u r < , + $ e y f i i f 9.q.v.9.v.b.M.B.m.N.K.~.L.t.~ 5.d.g.h.z.E.Q.~.[.}.|.eXaXaXaXaX",
"aXaXaXaXaXaXi.d.4.0./ / 8.a / i i a a i i r < > + % r j / g 8.f t % % e s i a / ) s.h.K.[.K.y.6 7 ^ d.h.K.E.Q.~.~. X<XaXaXaXaXaX",
"aXaXaXaXaXaXl.d.0.) ) / 8.8.a a a a i i i u , $ 9 s 4.9.9.v.n.9.f s % @ + & < u ! ! 5.6.z.[.7.4 6 Q 6.d.h.K.P.K.Q. XwXaXaXaXaXaX",
"aXaXaXaXaXaXaXd.^ 8.8.a 8.8.j a d y a a a s 9 + & % s a 9.e.b.n.8.j s 5 $ $ $ $ - 6 8 8 5.7.8 - 6 S ^ 6.y.g.l.K.U..XaXaXaXaXaXaX",
"aXaXaXaXaXaXaXl.a.! 8.f f / f / y y j y a a r , @   X & % t y a j 8.4.a 5 % < 4 4 8 8 _ _ 8 4 - 1 8 Q ~ 6.7.y.J.[.aXaXaXaXaXaXaX",
"aXaXaXaXaXaXaXaXg.8.! 8./ f f f y j d d j j p r u 5 # & r y q s w % 5 a 4.j 4.Q 3.3.5.7._ 9 - - : 7 ~ ~ 3.y.d.).aXaXaXaXaXaXaXaX",
"aXaXaXaXaXaXaXaXaXx.4.! a f f f j j j j j j 8.j f 9.f e t q s q.8.e.r % , 5 p 4.7.k.k.k.5.9 - - : 1 S Q 5.5.k.aXaXaXaXaXaXaXaXaX",
"aXaXaXaXaXaXaXaXaXaXd.Q a i a d d j d d j j k d g 9.j f / a r % 5 8.8.j 3.Q 6 4 6 7.k.y._ D 4 > - 1 8 F _ 5.<XaXaXaXaXaXaXaXaXaX",
"aXaXaXaXaXaXaXaXaXaXaXaXa i i d d d j j j k k k l c.k g g 9.9./ i r < 9 8 6 4 4 > * 6 _ 8 4 4 - , 1 8 F _ XXaXaXaXaXaXaXaXaXaXaX",
"aXaXaXaXaXaXaXaXaXaXaXaXaXi s d d d j d j d l l k l c.9.g d h f / ) ! ! W u u F H 6 4 - - - 4 4 9 7 F D [.aXaXaXaXaXaXaXaXaXaXaX",
"aXaXaXaXaXaXaXaXaXaXaXaXaXaXs s y d w d k d g l l n.e.k g a y r e e u u ! ^ t.l.y.5.3.F 5 , 5 5 9 F F (.aXaXaXaXaXaXaXaXaXaXaXaX",
"aXaXaXaXaXaXaXaXaXaXaXaXaXaXaXr s y y d d d d l n.c.c.( ( ( / i r e e < u F 6.y.7.6.4.4.j Q 3.3.F 3.<XaXaXaXaXaXaXaXaXaXaXaXaXaX",
"aXaXaXaXaXaXaXaXaXaXaXaXaXaXaXaXr r y y y y d k c.n.v.c.g ( ( ( f / ! ! W ^ 6.t.7.7.4.4.7.5.5.3.J.eXaXaXaXaXaXaXaXaXaXaXaXaXaXaX",
"aXaXaXaXaXaXaXaXaXaXaXaXaXaXaXaXaXaXs y y y y k g c.c.c.n.c.c.c.( ( ( ) 8.6.a.d.z.y.6.3.5.x.3XaXaXaXaXaXaXaXaXaXaXaXaXaXaXaXaXaX",
"aXaXaXaXaXaXaXaXaXaXaXaXaXaXaXaXaXaXaXaXw y w w d g ( l l c.( ( ( ) s.) d.a.f.l.k.3.3.).3XaXaXaXaXaXaXaXaXaXaXaXaXaXaXaXaXaXaXaX",
"aXaXaXaXaXaXaXaXaXaXaXaXaXaXaXaXaXaXaXaXaXw w w w t t t t d g h a a 8.8.0.0.7.5.3.L.aXaXaXaXaXaXaXaXaXaXaXaXaXaXaXaXaXaXaXaXaXaX",
"aXaXaXaXaXaXaXaXaXaXaXaXaXaXaXaXaXaXaXaXaXaXaXw q & & q 0 q q r w r 5 8 7 8 3.x.aXaXaXaXaXaXaXaXaXaXaXaXaXaXaXaXaXaXaXaXaXaXaXaX",
"aXaXaXaXaXaXaXaXaXaXaXaXaXaXaXaXaXaXaXaXaXaXaXaXaXq # # # # # # & $ $ + , _ aXaXaXaXaXaXaXaXaXaXaXaXaXaXaXaXaXaXaXaXaXaXaXaXaXaX",
"aXaXaXaXaXaXaXaXaXaXaXaXaXaXaXaXaXaXaXaXaXaXaXaXaXaXaXaXaXaXaXaXX @ + aXaXaXaXaXaXaXaXaXaXaXaXaXaXaXaXaXaXaXaXaXaXaXaXaXaXaXaXaX"
};
